TITLE ""
FILE "P1Q_t_1078-1087.mp3" MP3
  TRACK 01 AUDIO
    TITLE "P1Q_t_1078-1087_01"
    INDEX 01 00:00:00
  TRACK 02 AUDIO
    TITLE "P1Q_t_1078-1087_02"
    INDEX 01 00:01:08
  TRACK 03 AUDIO
    TITLE "P1Q_t_1078-1087_03"
    INDEX 01 00:01:27
  TRACK 04 AUDIO
    TITLE "P1Q_t_1078-1087_04"
    INDEX 01 00:02:48
  TRACK 05 AUDIO
    TITLE "P1Q_t_1078-1087_05"
    INDEX 01 00:02:68
  TRACK 06 AUDIO
    TITLE "P1Q_t_1078-1087_06"
    INDEX 01 00:07:22
  TRACK 07 AUDIO
    TITLE "P1Q_t_1078-1087_07"
    INDEX 01 00:07:65
  TRACK 08 AUDIO
    TITLE "P1Q_t_1078-1087_08"
    INDEX 01 00:08:74
  TRACK 09 AUDIO
    TITLE "P1Q_t_1078-1087_09"
    INDEX 01 00:09:19
  TRACK 10 AUDIO
    TITLE "P1Q_t_1078-1087_10"
    INDEX 01 00:11:61
  TRACK 11 AUDIO
    TITLE "P1Q_t_1078-1087_11"
    INDEX 01 00:12:06
  TRACK 12 AUDIO
    TITLE "P1Q_t_1078-1087_12"
    INDEX 01 00:16:45
  TRACK 13 AUDIO
    TITLE "P1Q_t_1078-1087_13"
    INDEX 01 00:17:19
  TRACK 14 AUDIO
    TITLE "P1Q_t_1078-1087_14"
    INDEX 01 00:18:45
  TRACK 15 AUDIO
    TITLE "P1Q_t_1078-1087_15"
    INDEX 01 00:18:67
  TRACK 16 AUDIO
    TITLE "P1Q_t_1078-1087_16"
    INDEX 01 00:21:42
  TRACK 17 AUDIO
    TITLE "P1Q_t_1078-1087_17"
    INDEX 01 00:21:63
  TRACK 18 AUDIO
    TITLE "P1Q_t_1078-1087_18"
    INDEX 01 00:27:42
  TRACK 19 AUDIO
    TITLE "P1Q_t_1078-1087_19"
    INDEX 01 00:28:13
  TRACK 20 AUDIO
    TITLE "P1Q_t_1078-1087_20"
    INDEX 01 00:29:28
  TRACK 21 AUDIO
    TITLE "P1Q_t_1078-1087_21"
    INDEX 01 00:29:47
  TRACK 22 AUDIO
    TITLE "P1Q_t_1078-1087_22"
    INDEX 01 00:32:34
  TRACK 23 AUDIO
    TITLE "P1Q_t_1078-1087_23"
    INDEX 01 00:32:53
  TRACK 24 AUDIO
    TITLE "P1Q_t_1078-1087_24"
    INDEX 01 00:36:63
  TRACK 25 AUDIO
    TITLE "P1Q_t_1078-1087_25"
    INDEX 01 00:37:33
  TRACK 26 AUDIO
    TITLE "P1Q_t_1078-1087_26"
    INDEX 01 00:38:42
  TRACK 27 AUDIO
    TITLE "P1Q_t_1078-1087_27"
    INDEX 01 00:38:64
  TRACK 28 AUDIO
    TITLE "P1Q_t_1078-1087_28"
    INDEX 01 00:42:30
  TRACK 29 AUDIO
    TITLE "P1Q_t_1078-1087_29"
    INDEX 01 00:42:50
  TRACK 30 AUDIO
    TITLE "P1Q_t_1078-1087_30"
    INDEX 01 00:46:71
  TRACK 31 AUDIO
    TITLE "P1Q_t_1078-1087_31"
    INDEX 01 00:47:51
  TRACK 32 AUDIO
    TITLE "P1Q_t_1078-1087_32"
    INDEX 01 00:48:68
  TRACK 33 AUDIO
    TITLE "P1Q_t_1078-1087_33"
    INDEX 01 00:49:15
  TRACK 34 AUDIO
    TITLE "P1Q_t_1078-1087_34"
    INDEX 01 00:51:53
  TRACK 35 AUDIO
    TITLE "P1Q_t_1078-1087_35"
    INDEX 01 00:51:72
  TRACK 36 AUDIO
    TITLE "P1Q_t_1078-1087_36"
    INDEX 01 00:55:62
  TRACK 37 AUDIO
    TITLE "P1Q_t_1078-1087_37"
    INDEX 01 00:56:32
  TRACK 38 AUDIO
    TITLE "P1Q_t_1078-1087_38"
    INDEX 01 00:57:53
  TRACK 39 AUDIO
    TITLE "P1Q_t_1078-1087_39"
    INDEX 01 00:58:00
  TRACK 40 AUDIO
    TITLE "P1Q_t_1078-1087_40"
    INDEX 01 01:00:63
  TRACK 41 AUDIO
    TITLE "P1Q_t_1078-1087_41"
    INDEX 01 01:01:10
  TRACK 42 AUDIO
    TITLE "P1Q_t_1078-1087_42"
    INDEX 01 01:05:67
  TRACK 43 AUDIO
    TITLE "P1Q_t_1078-1087_43"
    INDEX 01 01:06:37
  TRACK 44 AUDIO
    TITLE "P1Q_t_1078-1087_44"
    INDEX 01 01:07:64
  TRACK 45 AUDIO
    TITLE "P1Q_t_1078-1087_45"
    INDEX 01 01:08:06
  TRACK 46 AUDIO
    TITLE "P1Q_t_1078-1087_46"
    INDEX 01 01:10:44
  TRACK 47 AUDIO
    TITLE "P1Q_t_1078-1087_47"
    INDEX 01 01:10:64
  TRACK 48 AUDIO
    TITLE "P1Q_t_1078-1087_48"
    INDEX 01 01:14:20
  TRACK 49 AUDIO
    TITLE "P1Q_t_1078-1087_49"
    INDEX 01 01:14:66
  TRACK 50 AUDIO
    TITLE "P1Q_t_1078-1087_50"
    INDEX 01 01:16:19
  TRACK 51 AUDIO
    TITLE "P1Q_t_1078-1087_51"
    INDEX 01 01:16:39
  TRACK 52 AUDIO
    TITLE "P1Q_t_1078-1087_52"
    INDEX 01 01:18:22
  TRACK 53 AUDIO
    TITLE "P1Q_t_1078-1087_53"
    INDEX 01 01:18:42
  TRACK 54 AUDIO
    TITLE "P1Q_t_1078-1087_54"
    INDEX 01 01:23:10
  TRACK 55 AUDIO
    TITLE "P1Q_t_1078-1087_55"
    INDEX 01 01:23:55
  TRACK 56 AUDIO
    TITLE "P1Q_t_1078-1087_56"
    INDEX 01 01:24:72
  TRACK 57 AUDIO
    TITLE "P1Q_t_1078-1087_57"
    INDEX 01 01:25:16
  TRACK 58 AUDIO
    TITLE "P1Q_t_1078-1087_58"
    INDEX 01 01:28:48
  TRACK 59 AUDIO
    TITLE "P1Q_t_1078-1087_59"
    INDEX 01 01:28:68
  TRACK 60 AUDIO
    TITLE "P1Q_t_1078-1087_60"
    INDEX 01 01:33:41
